<svg width="44" height="44" viewBox="0 0 44 44" fill="none" xmlns="http://www.w3.org/2000/svg">
<path d="M21.92 28.0239C25.2471 28.0239 27.944 25.327 27.944 21.9999C27.944 18.6729 25.2471 15.976 21.92 15.976C18.5929 15.976 15.896 18.6729 15.896 21.9999C15.896 25.327 18.5929 28.0239 21.92 28.0239Z" stroke="#F1FAEE" stroke-width="3.012" stroke-linecap="round" stroke-linejoin="round"/>
<path d="M37.2257 18.7779L35.0216 13.4555L37.984 9.95198L33.968 5.93598L30.4835 8.91374L25.048 6.67842L23.798 1.91998H19.8738L18.605 6.74145L13.2944 8.98003L9.87197 5.93598L5.85597 9.95198L8.77433 13.544L6.60395 18.8801L1.83997 19.992V24.008L6.66139 25.3242L8.89959 30.6338L5.85597 34.048L9.87197 38.064L13.4686 35.1329L18.7011 37.2855L19.912 42.08H23.928L25.1418 37.2873L30.4642 35.0831C31.3513 35.7172 33.968 38.064 33.968 38.064L37.984 34.048L35.0039 30.5328L37.2087 25.2088L41.9998 23.9622L42 19.992L37.2257 18.7779Z" stroke="#F1FAEE" stroke-width="3.012" stroke-linecap="round" stroke-linejoin="round"/>
</svg>
