<svg width="44" height="44" viewBox="0 0 44 44" fill="none" xmlns="http://www.w3.org/2000/svg">
<path d="M11.7209 34.0476V32.0397C11.7209 26.4949 16.2159 21.9999 21.7607 21.9999C27.3054 21.9999 31.8004 26.4949 31.8004 32.0397V34.0476" stroke="#F1FAEE" stroke-width="3.01192" stroke-linecap="round"/>
<path d="M21.7607 22C25.0876 22 27.7845 19.3031 27.7845 15.9761C27.7845 12.6492 25.0876 9.95227 21.7607 9.95227C18.4337 9.95227 15.7368 12.6492 15.7368 15.9761C15.7368 19.3031 18.4337 22 21.7607 22Z" stroke="#F1FAEE" stroke-width="3.01192" stroke-linecap="round" stroke-linejoin="round"/>
<path d="M21.7605 42.0794C32.8501 42.0794 41.84 33.0895 41.84 21.9999C41.84 10.9104 32.8501 1.92047 21.7605 1.92047C10.6709 1.92047 1.68103 10.9104 1.68103 21.9999C1.68103 33.0895 10.6709 42.0794 21.7605 42.0794Z" stroke="#F1FAEE" stroke-width="3.01192"/>
</svg>
