<svg width="24" height="24" viewBox="0 0 24 24" fill="none" xmlns="http://www.w3.org/2000/svg">
<path d="M6.8899 17.4901L9.1899 19.7901M19.7899 14.9301C18.8134 15.9041 17.5895 16.5931 16.2501 16.9227C14.9108 17.2522 13.5069 17.2098 12.1899 16.8001L7.4799 21.5001C7.1399 21.8501 6.4699 22.0601 5.9899 21.9901L3.8099 21.6901C3.0899 21.5901 2.4199 20.9101 2.3099 20.1901L2.0099 18.0101C1.9399 17.5301 2.1699 16.8601 2.4999 16.5201L7.1999 11.8201C6.3999 9.22007 7.0199 6.27007 9.0799 4.22007C12.0299 1.27007 16.8199 1.27007 19.7799 4.22007C22.7399 7.17007 22.7399 11.9801 19.7899 14.9301Z" stroke="#195269" stroke-width="1.5" stroke-miterlimit="10" stroke-linecap="round" stroke-linejoin="round"/>
<path d="M14.5 11C14.8978 11 15.2794 10.842 15.5607 10.5607C15.842 10.2794 16 9.89782 16 9.5C16 9.10218 15.842 8.72064 15.5607 8.43934C15.2794 8.15804 14.8978 8 14.5 8C14.1022 8 13.7206 8.15804 13.4393 8.43934C13.158 8.72064 13 9.10218 13 9.5C13 9.89782 13.158 10.2794 13.4393 10.5607C13.7206 10.842 14.1022 11 14.5 11Z" stroke="#195269" stroke-width="1.5" stroke-linecap="round" stroke-linejoin="round"/>
</svg>
