<svg width="25" height="24" viewBox="0 0 25 24" fill="none" xmlns="http://www.w3.org/2000/svg">
<path d="M14.5 8H19.5M15.5 12H19.5M17.5 16H19.5M17.5 21H7.5C3.5 21 2.5 20 2.5 16V8C2.5 4 3.5 3 7.5 3H17.5C21.5 3 22.5 4 22.5 8V16C22.5 20 21.5 21 17.5 21Z" stroke="#0A475F" stroke-width="1.5" stroke-linecap="round" stroke-linejoin="round"/>
<path d="M12.5 16.3299C12.4327 15.628 12.1219 14.9717 11.6214 14.4749C11.121 13.9781 10.4624 13.6721 9.76 13.6099C9.25457 13.5599 8.74543 13.5599 8.24 13.6099C7.53826 13.674 6.88078 13.9806 6.38069 14.477C5.8806 14.9735 5.56918 15.6287 5.5 16.3299M9 11.2899C9.48004 11.2899 9.94042 11.0992 10.2799 10.7598C10.6193 10.4203 10.81 9.95996 10.81 9.47992C10.81 8.99988 10.6193 8.5395 10.2799 8.20006C9.94042 7.86062 9.48004 7.66992 9 7.66992C8.51996 7.66992 8.05958 7.86062 7.72014 8.20006C7.3807 8.5395 7.19 8.99988 7.19 9.47992C7.19 9.95996 7.3807 10.4203 7.72014 10.7598C8.05958 11.0992 8.51996 11.2899 9 11.2899Z" stroke="#0A475F" stroke-width="1.5" stroke-linecap="round" stroke-linejoin="round"/>
</svg>
