<svg width="421" height="151" viewBox="0 0 421 151" fill="none" xmlns="http://www.w3.org/2000/svg">
<path d="M16.6812 150.078H1L2.63198 1L419 16.4683L419.5 149.5L272.264 147.24M16.6812 150.078L38.8903 140.854L47.0989 108.995M16.6812 150.078L18.1713 21.0095M53.2234 138.441V85.2244L47.0989 108.995M53.2234 138.441H47.405L47.0989 108.995M53.2234 138.441H64.2215L69.6851 67.2017M69.6851 67.2017L18.1713 21.0095M69.6851 67.2017H103.815M18.1713 21.0095L419 32.1495M103.815 67.2017L106.085 31.369L419 40.9481M103.815 67.2017L103.599 71.2461M237.282 138.157L272.264 147.24M237.282 138.157L221.176 138.723M237.282 138.157V105.731M272.264 147.24V47.5469M272.264 47.5469L419 49.037M272.264 47.5469L237.282 67.6983V73.3038M337.756 143.692H306.322L321.081 115.345M337.756 143.692H369.189L352.514 115.345M337.756 143.692L321.081 115.345M337.756 143.692L352.514 115.345M321.081 115.345L335.84 86.9983L352.514 115.345M321.081 115.345H352.514M103.599 71.2461L120.843 71.5116M103.599 71.2461L101.685 107.114M237.282 73.3038L221.176 73.0559M237.282 73.3038V105.731M221.176 73.0559V138.723M221.176 73.0559L204.572 72.8004M221.176 138.723L204.572 139.305M204.572 72.8004V139.305M204.572 72.8004L187.613 72.5393M204.572 139.305L187.613 139.9M187.613 72.5393V139.9M187.613 72.5393L171.648 72.2936M187.613 139.9L171.648 140.46M171.648 72.2936V140.46M171.648 72.2936L155.258 72.0413M171.648 140.46L155.258 141.035M155.258 72.0413V141.035M155.258 72.0413L138.086 71.777M155.258 141.035L138.086 141.638M138.086 71.777V141.638M138.086 71.777L120.843 71.5116M138.086 141.638L120.843 142.243M120.843 71.5116V142.243M120.843 142.243L99.7703 142.982L101.685 107.114M101.685 107.114L237.282 105.731" stroke="white" stroke-width="1.41911"/>
<path d="M419 41V49L272 47.5L237.5 68L237 73L103.5 71L106 31.5L419 41Z" fill="#D9D9D9" fill-opacity="0.11" stroke="white"/>
</svg>
