<svg width="78" height="79" viewBox="0 0 78 79" fill="none" xmlns="http://www.w3.org/2000/svg">
<path d="M39 75.7448C58.8823 75.7448 75 59.4603 75 39.3724C75 19.2845 58.8823 3 39 3C19.1177 3 3 19.2845 3 39.3724C3 59.4603 19.1177 75.7448 39 75.7448Z" fill="#0A475F" stroke="#A8DADC" stroke-width="5.4"/>
<path d="M21.0002 61.1959V57.5586C21.0002 47.5148 29.0591 39.3724 39.0002 39.3724C48.9413 39.3724 57.0002 47.5148 57.0002 57.5586V61.1959" stroke="#A8DADC" stroke-width="5.4" stroke-linecap="round"/>
<path d="M39.0002 39.3724C44.965 39.3724 49.8002 34.4872 49.8002 28.4607C49.8002 22.4343 44.965 17.549 39.0002 17.549C33.0354 17.549 28.2002 22.4343 28.2002 28.4607C28.2002 34.4872 33.0354 39.3724 39.0002 39.3724Z" stroke="#A8DADC" stroke-width="5.4" stroke-linecap="round" stroke-linejoin="round"/>
</svg>
